# xmcd
#
# Track frame offsets:
#	150
#	17915
#	30868
#	42498
#	56283
#	75898
#	91770
#	101770
#	119073
#	131538
#
# Disc length: 1933
#
# Revision: 2
# Processed by: cddbd v1.5.1PL0 Copyright (c) Steve Scherf et al.
# Submitted via: ExactAudioCopy v0.90a9
# Normalized: r1:DSETVAR1
#
DISCID=71078b0a
DTITLE=Various Artist - Blus Brother Soul Sister
DYEAR=1900
DGENRE=Blues
TTITLE0=Muddy Waters - Mannish Boy
TTITLE1=Fontella Bass - Rescue Me
TTITLE2=Wilson Pickett - In the Midnight Hour
TTITLE3=Eddie Floyd - Knock On Wood
TTITLE4=Little Milton - Stormy Monday
TTITLE5=Dobie Gray - Drift Away
TTITLE6=Betty Everett - It's In His Kiss
TTITLE7=Fleetwood Mac - Need Your Love So Bad
TTITLE8=Ann Peebles - I'm Gonna Tear Your Playhouse Down
TTITLE9=Ben E King - Stand By Me
EXTD=Luiggi Records. Anunciado en TV.
EXTT0=
EXTT1=
EXTT2=
EXTT3=
EXTT4=
EXTT5=
EXTT6=
EXTT7=
EXTT8=
EXTT9=
PLAYORDER=
